<svg width="18" height="22" viewBox="0 0 18 22" fill="none" xmlns="http://www.w3.org/2000/svg">
<path d="M18 15.5537C18 15.9383 17.79 16.2722 17.47 16.4442L9.57 20.9373C9.41 21.0587 9.21 21.1194 9 21.1194C8.79 21.1194 8.59 21.0587 8.43 20.9373L0.53 16.4442C0.21 16.2722 0 15.9383 0 15.5537V6.4462C0 6.06166 0.21 5.72772 0.53 5.55569L8.43 1.06264C8.59 0.94121 8.79 0.880493 9 0.880493C9.21 0.880493 9.41 0.94121 9.57 1.06264L17.47 5.55569C17.79 5.72772 18 6.06166 18 6.4462V15.5537ZM9 3.05618L2 7.04325V14.9567L9 18.9437L16 14.9567V7.04325L9 3.05618Z" fill="#BFC9C3"/>
<path d="M8 16.0597H10V12.0119H14V9.98801H10V5.94023H8V9.98801H4V12.0119H8V16.0597Z" fill="#BFC9C3"/>
</svg>
