<svg width="20" height="20" viewBox="0 0 20 20" fill="none" xmlns="http://www.w3.org/2000/svg">
<path d="M8.50006 14H7.00006V8.21L5.22006 8.76V7.53L8.36006 6.41H8.50006V14ZM12.0701 6.21C13.5001 6.21 14.6401 7.36 14.6401 8.78V11.42C14.6401 12.84 13.5001 14 12.0701 14C10.6401 14 9.50006 12.84 9.50006 11.42V8.78C9.50006 7.36 10.6501 6.21 12.0701 6.21ZM12.0601 7.65C11.4701 7.65 11.0001 8.13 11.0001 8.71V11.5C11.0001 12.07 11.4701 12.54 12.0601 12.54C12.6401 12.54 13.1401 12.06 13.1401 11.5V8.71C13.1401 8.12 12.6401 7.65 12.0601 7.65ZM10.0001 0C9.50006 0 9.00006 0.19 8.59006 0.59L0.590059 8.59C-0.199941 9.37 -0.199941 10.63 0.590059 11.41L8.59006 19.41C9.37006 20.2 10.6301 20.2 11.4101 19.41L19.4101 11.41C20.2001 10.63 20.2001 9.37 19.4101 8.59L11.4101 0.59C11.0001 0.19 10.5001 0 10.0001 0ZM10.0001 2L18.0001 10L10.0001 18L2.00006 10L10.0001 2Z" fill="#BFC9C3"/>
</svg>
