<svg width="24" height="18" viewBox="0 0 24 18" fill="none" xmlns="http://www.w3.org/2000/svg">
<path fill-rule="evenodd" clip-rule="evenodd" d="M9.00006 0C8.50006 0 8.00006 0.19 7.59006 0.59L0.590059 7.59C-0.199941 8.37 -0.199941 9.63 0.590059 10.41L7.59006 17.41C8.37006 18.2 9.63006 18.2 10.4101 17.41L12.0001 15.82L13.5901 17.41C14.3701 18.2 15.6301 18.2 16.4101 17.41L23.4101 10.41C24.2001 9.63 24.2001 8.37 23.4101 7.59L16.4101 0.59C16.0001 0.19 15.5001 0 15.0001 0C14.5001 0 14.0001 0.19 13.5901 0.59L12.0001 2.18L10.4101 0.59C10.0001 0.19 9.50006 0 9.00006 0ZM15 2.00003L15 2L13 4H11L10.59 3.59003L10.5901 3.59L9.00006 2L9.00003 2.00003L9 2L2 9L9 16L9.00003 16L9.00006 16L10.5901 14.41L10.59 14.41L11 14H13L15 16L15 16L15.0001 16L22.0001 9L15.0001 2L15 2.00003ZM6.49997 6.8L5.5 7.10898V5.84177L7.85997 5H7.99997V12.59H6.49997V6.8ZM13.5 10.75C13.5 11.9926 12.4926 13 11.25 13C10.0074 13 9 11.9926 9 10.75V7.25C9 6.00736 10.0074 5 11.25 5C12.4926 5 13.5 6.00736 13.5 7.25V10.75ZM12 10.75C12 11.1642 11.6642 11.5 11.25 11.5C10.8358 11.5 10.5 11.1642 10.5 10.75V7.25C10.5 6.83579 10.8358 6.5 11.25 6.5C11.6642 6.5 12 6.83579 12 7.25V10.75ZM16.75 13C17.9926 13 19 11.9926 19 10.75V7.25C19 6.00736 17.9926 5 16.75 5C15.5074 5 14.5 6.00736 14.5 7.25V10.75C14.5 11.9926 15.5074 13 16.75 13ZM16.75 11.5C17.1642 11.5 17.5 11.1642 17.5 10.75V7.25C17.5 6.83579 17.1642 6.5 16.75 6.5C16.3358 6.5 16 6.83579 16 7.25V10.75C16 11.1642 16.3358 11.5 16.75 11.5Z" fill="#BFC9C3"/>
</svg>
