<svg width="18" height="20" viewBox="0 0 18 20" fill="none" xmlns="http://www.w3.org/2000/svg">
<path d="M18 14.5C18 14.88 17.79 15.21 17.47 15.38L9.57 19.82C9.41 19.94 9.21 20 9 20C8.79 20 8.59 19.94 8.43 19.82L0.53 15.38C0.21 15.21 0 14.88 0 14.5V5.5C0 5.12 0.21 4.79 0.53 4.62L8.43 0.18C8.59 0.0600001 8.79 0 9 0C9.21 0 9.41 0.0600001 9.57 0.18L17.47 4.62C17.79 4.79 18 5.12 18 5.5V14.5ZM9 2.15L2 6.09V13.91L9 17.85L16 13.91V6.09L9 2.15ZM11.93 6.27C12.6116 6.27 13.2653 6.54077 13.7473 7.02274C14.2292 7.5047 14.5 8.15839 14.5 8.84V11.5C14.5 12.9 13.35 14.05 11.93 14.05C10.5 14.05 9.36 12.9 9.36 11.5V8.84C9.36 8.15839 9.63077 7.5047 10.1127 7.02274C10.5947 6.54077 11.2484 6.27 11.93 6.27ZM11.92 7.71C11.34 7.71 10.86 8.18 10.86 8.77V11.53C10.86 12.12 11.34 12.6 11.92 12.6C12.5 12.6 13 12.12 13 11.53V8.77C13 8.18 12.5 7.71 11.92 7.71ZM8.45 12.76V13.96L3.31 13.93V12.91C3.31 12.91 6.74 9.58 6.75 8.57C6.75 7.33 5.73 7.46 5.73 7.46C5.73 7.46 4.75 7.5 4.64 8.71L3.14 8.76C3.14 8.76 3.18 6.26 5.83 6.26C8.2 6.26 8.23 8.04 8.23 8.5C8.23 10.18 5.15 12.77 5.15 12.77L8.45 12.76Z" fill="#BFC9C3"/>
</svg>
