<svg width="22" height="19" viewBox="0 0 22 19" fill="none" xmlns="http://www.w3.org/2000/svg">
<path d="M12.43 13.15H13.29V14.36H12.43V16H10.92V14.36H7.81995L7.74995 13.41L10.91 8.42H12.43V13.15ZM9.24995 13.15H10.92V10.47L9.24995 13.15ZM21 19H0.999955C0.639955 19 0.309955 18.81 0.129955 18.5C-0.0500455 18.18 -0.0400455 17.79 0.149955 17.5L10.15 1C10.5 0.380004 11.5 0.380004 11.86 1L21.86 17.5C22.04 17.79 22.05 18.18 21.87 18.5C21.69 18.81 21.36 19 21 19ZM2.77995 17H19.23L11 3.43L2.77995 17Z" fill="#BFC9C3"/>
</svg>
