<svg width="18" height="18" viewBox="0 0 18 18" fill="none" xmlns="http://www.w3.org/2000/svg">
<path d="M2 0H16C16.5304 0 17.0391 0.210714 17.4142 0.585786C17.7893 0.960859 18 1.46957 18 2V16C18 16.5304 17.7893 17.0391 17.4142 17.4142C17.0391 17.7893 16.5304 18 16 18H2C1.46957 18 0.960859 17.7893 0.585786 17.4142C0.210714 17.0391 0 16.5304 0 16V2C0 1.46957 0.210714 0.960859 0.585786 0.585786C0.960859 0.210714 1.46957 0 2 0ZM2 2V16H16V2H2ZM10.39 6.53C7.89 6.5 7.86 8.53 7.86 8.53C7.86 8.53 8.41 7.87 9.53 7.87C10.19 7.87 11.5 8.45 11.55 10.41C11.61 12.47 9.77 13 9.77 13C9.77 13 6.27 13.86 6.3 9.66C6.33 4.94 10.39 5.33 10.39 5.33V6.53ZM8.95 9.1C8.21 9 7.83 9.78 7.83 9.78L7.85 10.5C7.85 11.27 8.39 11.83 9 11.83C9.61 11.83 10.05 11.27 10.05 10.5C10.05 9.73 9.56 9.1 8.95 9.1Z" fill="#BFC9C3"/>
</svg>
