<svg width="20" height="20" viewBox="0 0 20 20" fill="none" xmlns="http://www.w3.org/2000/svg">
<path d="M10.0001 0C9.50006 0 9.00006 0.19 8.59006 0.59L0.590059 8.59C-0.199941 9.37 -0.199941 10.63 0.590059 11.41L8.59006 19.41C9.37006 20.2 10.6301 20.2 11.4101 19.41L19.4101 11.41C20.2001 10.63 20.2001 9.37 19.4101 8.59L11.4101 0.59C11.0001 0.19 10.5001 0 10.0001 0ZM10.0001 2L18.0001 10L10.0001 18L2.00006 10M10.0001 6.25C11.3101 6.25 12.3801 7.2 12.3801 8.38C12.3801 9.07 12.0001 9.68 11.4401 10.07C12.1401 10.46 12.6001 11.13 12.6001 11.9C12.6001 13.12 11.4401 14.1 10.0001 14.1C8.56006 14.1 7.40006 13.12 7.40006 11.9C7.40006 11.13 7.86006 10.46 8.56006 10.07C8.00006 9.68 7.63006 9.07 7.63006 8.38C7.63006 7.2 8.69006 6.25 10.0001 6.25ZM10.0001 10.65C9.39006 10.65 8.90006 11.14 8.90006 11.75C8.90006 12.36 9.39006 12.85 10.0001 12.85C10.6101 12.85 11.1001 12.36 11.1001 11.75C11.1001 11.14 10.6101 10.65 10.0001 10.65ZM10.0001 7.5C9.50006 7.5 9.10006 7.95 9.10006 8.5C9.10006 9.05 9.50006 9.5 10.0001 9.5C10.5001 9.5 10.9001 9.05 10.9001 8.5C10.9001 7.95 10.5001 7.5 10.0001 7.5Z" fill="#BFC9C3"/>
</svg>
